<?xml version="1.0" encoding="UTF-8"?>
<svg xmlns="http://www.w3.org/2000/svg" xmlns:xlink="http://www.w3.org/1999/xlink" width="px" height="px" viewBox="0 0 256 256" version="1.1">
<g id="surface1">
<path style=" stroke:none;fill-rule:nonzero;fill:rgb(0%,0%,0%);fill-opacity:1;" d="M 30.550781 112 C 22.5 112 16 105.5 16 97.449219 C 16 96.5 16.101562 95.601562 16.300781 94.648438 C 18.949219 84.148438 39.398438 16 128 16 C 216.601562 16 237.050781 84.148438 239.699219 94.648438 C 239.949219 95.601562 240 96.5 240 97.449219 C 240 105.5 233.5 112 225.449219 112 Z M 72 64 C 72 59.582031 68.417969 56 64 56 C 59.582031 56 56 59.582031 56 64 C 56 68.417969 59.582031 72 64 72 C 68.417969 72 72 68.417969 72 64 Z M 192 72 C 196.417969 72 200 68.417969 200 64 C 200 59.582031 196.417969 56 192 56 C 187.582031 56 184 59.582031 184 64 C 184 68.417969 187.582031 72 192 72 Z M 136 48 C 136 43.582031 132.417969 40 128 40 C 123.582031 40 120 43.582031 120 48 C 120 52.417969 123.582031 56 128 56 C 132.417969 56 136 52.417969 136 48 Z M 8 152 C 8 138.75 18.75 128 32 128 L 224 128 C 237.25 128 248 138.75 248 152 C 248 165.25 237.25 176 224 176 L 32 176 C 18.75 176 8 165.25 8 152 Z M 16 200 C 16 195.601562 19.601562 192 24 192 L 232 192 C 236.398438 192 240 195.601562 240 200 L 240 208 C 240 225.648438 225.648438 240 208 240 L 48 240 C 30.351562 240 16 225.648438 16 208 Z M 16 200 "/>
</g>
</svg>
