<?xml version="1.0" encoding="UTF-8"?>
<svg xmlns="http://www.w3.org/2000/svg" xmlns:xlink="http://www.w3.org/1999/xlink" width="px" height="px" viewBox="0 0 224 256" version="1.1">
<g id="surface1">
<path style=" stroke:none;fill-rule:nonzero;fill:rgb(100%,100%,100%);fill-opacity:1;" d="M 112.050781 70.5 C 80.25 70.5 54.601562 96.148438 54.601562 127.949219 C 54.601562 159.75 80.25 185.398438 112.050781 185.398438 C 143.851562 185.398438 169.5 159.75 169.5 127.949219 C 169.5 96.148438 143.851562 70.5 112.050781 70.5 Z M 112.050781 165.300781 C 91.5 165.300781 74.699219 148.550781 74.699219 127.949219 C 74.699219 107.351562 91.449219 90.601562 112.050781 90.601562 C 132.648438 90.601562 149.398438 107.351562 149.398438 127.949219 C 149.398438 148.550781 132.601562 165.300781 112.050781 165.300781 Z M 185.25 68.148438 C 185.25 75.601562 179.25 81.550781 171.851562 81.550781 C 164.398438 81.550781 158.449219 75.550781 158.449219 68.148438 C 158.449219 60.75 164.449219 54.75 171.851562 54.75 C 179.25 54.75 185.25 60.75 185.25 68.148438 Z M 223.300781 81.75 C 222.449219 63.800781 218.351562 47.898438 205.199219 34.800781 C 192.101562 21.699219 176.199219 17.601562 158.25 16.699219 C 139.75 15.648438 84.300781 15.648438 65.800781 16.699219 C 47.898438 17.550781 32 21.648438 18.851562 34.75 C 5.699219 47.851562 1.648438 63.75 0.75 81.699219 C -0.300781 100.199219 -0.300781 155.648438 0.75 174.148438 C 1.601562 192.101562 5.699219 208 18.851562 221.101562 C 32 234.199219 47.851562 238.300781 65.800781 239.199219 C 84.300781 240.25 139.75 240.25 158.25 239.199219 C 176.199219 238.351562 192.101562 234.25 205.199219 221.101562 C 218.300781 208 222.398438 192.101562 223.300781 174.148438 C 224.351562 155.648438 224.351562 100.25 223.300781 81.75 Z M 199.398438 194 C 195.5 203.800781 187.949219 211.351562 178.101562 215.300781 C 163.351562 221.148438 128.351562 219.800781 112.050781 219.800781 C 95.75 219.800781 60.699219 221.101562 46 215.300781 C 36.199219 211.398438 28.648438 203.851562 24.699219 194 C 18.851562 179.25 20.199219 144.25 20.199219 127.949219 C 20.199219 111.648438 18.898438 76.601562 24.699219 61.898438 C 28.601562 52.101562 36.148438 44.550781 46 40.601562 C 60.75 34.75 95.75 36.101562 112.050781 36.101562 C 128.351562 36.101562 163.398438 34.800781 178.101562 40.601562 C 187.898438 44.5 195.449219 52.050781 199.398438 61.898438 C 205.25 76.648438 203.898438 111.648438 203.898438 127.949219 C 203.898438 144.25 205.25 179.300781 199.398438 194 Z M 199.398438 194 "/>
</g>
</svg>
