<?xml version="1.0" encoding="UTF-8"?>
<svg xmlns="http://www.w3.org/2000/svg" xmlns:xlink="http://www.w3.org/1999/xlink" width="px" height="px" viewBox="0 0 224 256" version="1.1">
<g id="surface1">
<path style=" stroke:none;fill-rule:nonzero;fill:rgb(100%,100%,100%);fill-opacity:1;" d="M 224 104.953125 C 201.988281 105.007812 180.515625 98.144531 162.613281 85.328125 L 162.613281 174.691406 C 162.601562 208.582031 141.5625 238.90625 109.816406 250.78125 C 78.074219 262.65625 42.296875 253.589844 20.042969 228.027344 C -2.210938 202.464844 -6.269531 165.777344 9.863281 135.972656 C 25.996094 106.167969 58.929688 89.5 92.5 94.15625 L 92.5 139.101562 C 77.113281 134.257812 60.355469 139.855469 50.964844 152.972656 C 41.578125 166.089844 41.679688 183.757812 51.222656 196.761719 C 60.769531 209.769531 77.589844 215.167969 92.917969 210.148438 C 108.25 205.125 118.617188 190.820312 118.613281 174.691406 L 118.613281 0 L 162.613281 0 C 162.585938 3.714844 162.894531 7.425781 163.546875 11.085938 C 166.636719 27.589844 176.382812 42.097656 190.5 51.195312 C 200.4375 57.765625 212.085938 61.265625 224 61.265625 Z M 224 104.953125 "/>
</g>
</svg>
