<?xml version="1.0" encoding="UTF-8"?>
<svg xmlns="http://www.w3.org/2000/svg" xmlns:xlink="http://www.w3.org/1999/xlink" width="px" height="px" viewBox="0 0 224 256" version="1.1">
<g id="surface1">
<path style=" stroke:none;fill-rule:nonzero;fill:rgb(100%,100%,100%);fill-opacity:1;" d="M 190.449219 48.550781 C 169.5 27.550781 141.601562 16 111.949219 16 C 50.75 16 0.949219 65.800781 0.949219 127 C 0.949219 146.550781 6.050781 165.648438 15.75 182.5 L 0 240 L 58.851562 224.550781 C 75.050781 233.398438 93.300781 238.050781 111.898438 238.050781 L 111.949219 238.050781 C 173.101562 238.050781 224 188.25 224 127.050781 C 224 97.398438 211.398438 69.550781 190.449219 48.550781 Z M 111.949219 219.351562 C 95.351562 219.351562 79.101562 214.898438 64.949219 206.5 L 61.601562 204.5 L 26.699219 213.648438 L 36 179.601562 L 33.800781 176.101562 C 24.550781 161.398438 19.699219 144.449219 19.699219 127 C 19.699219 76.148438 61.101562 34.75 112 34.75 C 136.648438 34.75 159.800781 44.351562 177.199219 61.800781 C 194.601562 79.25 205.300781 102.398438 205.25 127.050781 C 205.25 177.949219 162.800781 219.351562 111.949219 219.351562 Z M 162.550781 150.25 C 159.800781 148.851562 146.148438 142.148438 143.601562 141.25 C 141.050781 140.300781 139.199219 139.851562 137.351562 142.648438 C 135.5 145.449219 130.199219 151.648438 128.550781 153.550781 C 126.949219 155.398438 125.300781 155.648438 122.550781 154.25 C 106.25 146.101562 95.550781 139.699219 84.800781 121.25 C 81.949219 116.351562 87.648438 116.699219 92.949219 106.101562 C 93.851562 104.25 93.398438 102.648438 92.699219 101.25 C 92 99.851562 86.449219 86.199219 84.148438 80.648438 C 81.898438 75.25 79.601562 76 77.898438 75.898438 C 76.300781 75.800781 74.449219 75.800781 72.601562 75.800781 C 70.75 75.800781 67.75 76.5 65.199219 79.25 C 62.648438 82.050781 55.5 88.75 55.5 102.398438 C 55.5 116.050781 65.449219 129.25 66.800781 131.101562 C 68.199219 132.949219 86.351562 160.949219 114.199219 173 C 131.800781 180.601562 138.699219 181.25 147.5 179.949219 C 152.851562 179.148438 163.898438 173.25 166.199219 166.75 C 168.5 160.25 168.5 154.699219 167.800781 153.550781 C 167.148438 152.300781 165.300781 151.601562 162.550781 150.25 Z M 162.550781 150.25 "/>
</g>
</svg>
